<?xml version="1.0" encoding="utf-8"?>
<!-- Generator: Adobe Illustrator 16.0.0, SVG Export Plug-In . SVG Version: 6.00 Build 0)  -->
<!DOCTYPE svg PUBLIC "-//W3C//DTD SVG 1.1//EN" "http://www.w3.org/Graphics/SVG/1.1/DTD/svg11.dtd">
<svg version="1.1" id="图层_1" focusable="false" xmlns="http://www.w3.org/2000/svg" xmlns:xlink="http://www.w3.org/1999/xlink"
	 x="0px" y="0px" width="595.279px" height="841.89px" viewBox="0 0 595.279 841.89" enable-background="new 0 0 595.279 841.89"
	 xml:space="preserve">
<title>Bootstrap</title>
<path fill="#FFFFFF" d="M496.067,309.141c24.804,0,48.245,9.727,65.947,27.429c17.703,17.703,27.43,41.145,27.43,65.948v396.854
	c0,24.803-9.727,48.244-27.43,65.947c-17.702,17.703-41.144,27.43-65.947,27.43H99.213c-24.803,0-48.245-9.727-65.947-27.43
	c-17.703-17.703-27.43-41.145-27.43-65.947V402.518c0-24.803,9.727-48.245,27.43-65.948c17.702-17.703,41.145-27.429,65.947-27.429
	H496.067 M496.067,303.305H99.213C44.646,303.305,0,347.951,0,402.518v396.854c0,54.566,44.646,99.213,99.213,99.213h396.854
	c54.567,0,99.213-44.646,99.213-99.213V402.518C595.28,347.951,550.634,303.305,496.067,303.305z"/>
<text transform="matrix(1.1619 0 0 1 109.2751 739.1782)" fill="#FFFFFF" font-family="'FZCHSJW--GB1-0'" font-size="634.1267">c</text>
</svg>
